<svg width="22" height="22" viewBox="0 0 22 22" fill="none" xmlns="http://www.w3.org/2000/svg">
<path fill-rule="evenodd" clip-rule="evenodd" d="M0 4H2V20H18V22H2C0.9 22 0 21.1 0 20V4ZM6 0H20C21.1 0 22 0.9 22 2V16C22 17.1 21.1 18 20 18H6C4.9 18 4 17.1 4 16V2C4 0.9 4.9 0 6 0ZM6 2V16H20V2H6ZM16.2833 7.28333L15.5 9L14.7167 7.28333L13 6.5L14.7167 5.71667L15.5 4L16.2833 5.71667L18 6.5L16.2833 7.28333ZM11.3333 7.33333L12.375 9.625L14.6667 10.6667L12.375 11.7083L11.3333 14L10.2917 11.7083L8 10.6667L10.2917 9.625L11.3333 7.33333Z" fill="#35373E"/>
</svg>
