<svg width="23" height="24" viewBox="0 0 23 24" fill="none" xmlns="http://www.w3.org/2000/svg">
<path fill-rule="evenodd" clip-rule="evenodd" d="M7.09314 6.51852C7.09314 4.22756 8.95033 2.37037 11.2413 2.37037C13.5323 2.37037 15.3894 4.22756 15.3894 6.51852V8.29628H7.09314V6.51852ZM4.72277 8.29628V6.51852C4.72277 2.91844 7.64121 0 11.2413 0C14.8414 0 17.7598 2.91844 17.7598 6.51852V8.29628H19.8153C21.6719 8.29628 23.0711 9.98419 22.7269 11.8086L20.882 21.5864C20.6179 22.9862 19.395 24 17.9704 24H4.80874C3.38419 24 2.16127 22.9862 1.89715 21.5864L0.0522837 11.8086C-0.291944 9.98419 1.10728 8.29628 2.96387 8.29628H4.72277ZM2.96387 10.6666H19.8153C20.1866 10.6666 20.4665 11.0042 20.3976 11.3691L18.5527 21.1469C18.4999 21.4269 18.2553 21.6296 17.9704 21.6296H4.80874C4.52383 21.6296 4.27924 21.4269 4.22642 21.1469L2.38156 11.3691C2.31271 11.0042 2.59255 10.6666 2.96387 10.6666Z" fill="#35373E"/>
</svg>
