<svg width="24" height="24" viewBox="0 0 24 24" fill="none" xmlns="http://www.w3.org/2000/svg">
<path fill-rule="evenodd" clip-rule="evenodd" d="M2.96296 2.37037H21.037C21.3643 2.37037 21.6296 2.63568 21.6296 2.96296V21.037C21.6296 21.3643 21.3643 21.6296 21.037 21.6296H2.96296C2.63568 21.6296 2.37037 21.3643 2.37037 21.037V2.96296C2.37037 2.63568 2.63568 2.37037 2.96296 2.37037ZM0 2.96296C0 1.32656 1.32656 0 2.96296 0H21.037C22.6734 0 24 1.32656 24 2.96296V21.037C24 22.6734 22.6734 24 21.037 24H2.96296C1.32656 24 0 22.6734 0 21.037V2.96296ZM16.8177 9.70668L15.7036 12.1482L14.5895 9.70668L12.1481 8.59261L14.5895 7.47853L15.7036 5.03705L16.8177 7.47853L19.2592 8.59261L16.8177 9.70668ZM9.77769 9.77779L11.2592 13.037L14.5184 14.5185L11.2592 16L9.77769 19.2593L8.29621 16L5.03695 14.5185L8.29621 13.037L9.77769 9.77779Z" fill="#35373E"/>
</svg>
