<svg width="24" height="24" viewBox="0 0 24 24" fill="none" xmlns="http://www.w3.org/2000/svg">
<path fill-rule="evenodd" clip-rule="evenodd" d="M2.96296 2.37037H21.037C21.3643 2.37037 21.6296 2.63568 21.6296 2.96296V21.037C21.6296 21.3643 21.3643 21.6296 21.037 21.6296H2.96296C2.63568 21.6296 2.37037 21.3643 2.37037 21.037V2.96296C2.37037 2.63568 2.63568 2.37037 2.96296 2.37037ZM0 2.96296C0 1.32656 1.32656 0 2.96296 0H21.037C22.6734 0 24 1.32656 24 2.96296V21.037C24 22.6734 22.6734 24 21.037 24H2.96296C1.32656 24 0 22.6734 0 21.037V2.96296ZM8.29622 15.7037V8.29632H15.7036V15.7037H8.29622ZM5.92585 7.11113C5.92585 6.45657 6.45647 5.92595 7.11103 5.92595H16.8888C17.5434 5.92595 18.074 6.45657 18.074 7.11113V16.8889C18.074 17.5435 17.5434 18.0741 16.8888 18.0741H7.11103C6.45647 18.0741 5.92585 17.5435 5.92585 16.8889V7.11113Z" fill="#EC575C"/>
</svg>
