<svg width="24" height="24" viewBox="0 0 24 24" fill="none" xmlns="http://www.w3.org/2000/svg">
<path fill-rule="evenodd" clip-rule="evenodd" d="M21.037 2.37037H2.96296C2.63568 2.37037 2.37037 2.63568 2.37037 2.96296V15.8483L5.70627 12.5958C6.16657 12.147 6.90073 12.147 7.36103 12.5958L10.1234 15.2891L16.3426 9.22546C16.8028 8.77667 17.537 8.77667 17.9973 9.22546L21.6296 12.767V2.96296C21.6296 2.63568 21.3643 2.37037 21.037 2.37037ZM2.37037 21.037V19.1589L6.53365 15.0997L9.29601 17.793C9.75631 18.2418 10.4905 18.2418 10.9508 17.793L17.1699 11.7293L21.3948 15.8486C21.4671 15.9191 21.5461 15.9784 21.6296 16.0267V21.037C21.6296 21.3643 21.3643 21.6296 21.037 21.6296H2.96296C2.63568 21.6296 2.37037 21.3643 2.37037 21.037ZM2.96296 0C1.32656 0 0 1.32656 0 2.96296V21.037C0 22.6734 1.32656 24 2.96296 24H21.037C22.6734 24 24 22.6734 24 21.037V2.96296C24 1.32656 22.6734 0 21.037 0H2.96296ZM7.70369 9.1852C8.84917 9.1852 9.77776 8.2566 9.77776 7.11112C9.77776 5.96565 8.84917 5.03705 7.70369 5.03705C6.55821 5.03705 5.62962 5.96565 5.62962 7.11112C5.62962 8.2566 6.55821 9.1852 7.70369 9.1852Z" fill="#35373E"/>
</svg>
