<svg width="81" height="81" viewBox="0 0 81 81" fill="none" xmlns="http://www.w3.org/2000/svg">
<path fill-rule="evenodd" clip-rule="evenodd" d="M71 8H10C8.89543 8 8 8.89543 8 10V53.4884L19.2589 42.511C20.8124 40.9963 23.2902 40.9963 24.8437 42.511L34.1667 51.6009L55.1563 31.136C56.7098 29.6213 59.1876 29.6213 60.7411 31.136L73 43.0884V10C73 8.89543 72.1046 8 71 8ZM8 71V64.6616L22.0513 50.9616L31.3743 60.0515C32.9278 61.5662 35.4056 61.5662 36.9591 60.0515L57.9487 39.5866L72.2076 53.489C72.4515 53.7268 72.718 53.9272 73 54.0902V71C73 72.1046 72.1046 73 71 73H10C8.89543 73 8 72.1046 8 71ZM10 0C4.47715 0 0 4.47715 0 10V71C0 76.5229 4.47715 81 10 81H71C76.5229 81 81 76.5229 81 71V10C81 4.47715 76.5229 0 71 0H10ZM26 31C29.866 31 33 27.866 33 24C33 20.134 29.866 17 26 17C22.134 17 19 20.134 19 24C19 27.866 22.134 31 26 31Z" fill="#DADEE6"/>
</svg>
