<svg width="84" height="80" viewBox="0 0 84 80" fill="none" xmlns="http://www.w3.org/2000/svg">
<path fill-rule="evenodd" clip-rule="evenodd" d="M8.88889 0H75.1111C80 0 84 4 84 8.88889V71.1111C84 76 80 80 75.1111 80H8.88889C4 80 0 76 0 71.1111V8.88889C0 4 4 0 8.88889 0ZM8.88889 8.88889V71.1111H75.1111V8.88889H8.88889ZM42 41.2802C48.0867 41.2802 53 36.3669 53 30.2802C53 24.1936 48.0867 19.2802 42 19.2802C35.9133 19.2802 31 24.1936 31 30.2802C31 36.3669 35.9133 41.2802 42 41.2802ZM42 48.2469C34.6667 48.2469 20 52.2802 20 59.6136V63.2802H64V59.6136C64 52.2802 49.3333 48.2469 42 48.2469Z" fill="#E5E5E5"/>
</svg>
